<svg width="907" height="675" xmlns="http://www.w3.org/2000/svg" xmlns:xlink="http://www.w3.org/1999/xlink" xml:space="preserve" overflow="hidden"><defs><clipPath id="clip0"><rect x="-1089" y="613" width="907" height="675"/></clipPath></defs><g clip-path="url(#clip0)" transform="translate(1089 -613)"><path d="M789.881 447.184 944.506 447.184 944.506 525.639 789.881 525.639Z" fill="#404040" transform="matrix(6.12709e-17 1 -1.00063 6.12323e-17 265.466 232.384)"/><path d="M469.519 0 906.412 0 906.412 78.4542 469.519 78.4542Z" fill="#404040" transform="matrix(1.00063 0 0 1 -1089 613.158)"/><path d="M469.519 298.155 906.412 298.155 906.412 376.609 469.519 376.609Z" fill="#404040" transform="matrix(1.00063 0 0 1 -1089 613.158)"/><path d="M469.519 596.23 906.412 596.23 906.412 674.684 469.519 674.684Z" fill="#404040" transform="matrix(1.00063 0 0 1 -1089 613.158)"/><path d="M431.442 149.11 586.067 149.11 586.067 227.564 431.442 227.564Z" fill="#404040" transform="matrix(6.12709e-17 1 -1.00063 6.12323e-17 -391.461 292.748)"/><path d="M0 0 436.893 0 436.893 78.4542 1.96289e-05 78.4542Z" fill="#404040" transform="matrix(1.00063 0 0 1 -1089 613.158)"/><path d="M0 298.155 436.893 298.155 436.893 376.609 1.96289e-05 376.609Z" fill="#404040" transform="matrix(1.00063 0 0 1 -1089 613.158)"/><path d="M0 596.23 436.893 596.23 436.893 674.684 1.96289e-05 674.684Z" fill="#404040" transform="matrix(1.00063 0 0 1 -1089 613.158)"/><path d="M-38.0935 447.184 116.532 447.184 116.532 525.639-38.0935 525.639Z" fill="#404040" transform="matrix(6.12709e-17 1 -1.00063 6.12323e-17 -563.03 1060.34)"/><path d="M-38.0935 149.11 116.532 149.11 116.532 227.564-38.0935 227.564Z" fill="#404040" transform="matrix(6.12709e-17 1 -1.00063 6.12323e-17 -861.293 762.268)"/></g></svg>